<?xml version="1.0" encoding="UTF-8" standalone="no"?>
<!-- Created with Inkscape (http://www.inkscape.org/) -->

<svg
   width="210mm"
   height="297mm"
   viewBox="0 0 210 297"
   version="1.1"
   id="svg1"
   xml:space="preserve"
   inkscape:version="1.4 (86a8ad7, 2024-10-11)"
   sodipodi:docname="logo_teste.svg"
   xmlns:inkscape="http://www.inkscape.org/namespaces/inkscape"
   xmlns:sodipodi="http://sodipodi.sourceforge.net/DTD/sodipodi-0.dtd"
   xmlns="http://www.w3.org/2000/svg"
   xmlns:svg="http://www.w3.org/2000/svg"><sodipodi:namedview
     id="namedview1"
     pagecolor="#ffffff"
     bordercolor="#000000"
     borderopacity="0.25"
     inkscape:showpageshadow="2"
     inkscape:pageopacity="0.0"
     inkscape:pagecheckerboard="0"
     inkscape:deskcolor="#d1d1d1"
     inkscape:document-units="mm"
     inkscape:zoom="1.3934011"
     inkscape:cx="315.77411"
     inkscape:cy="314.69761"
     inkscape:window-width="1141"
     inkscape:window-height="755"
     inkscape:window-x="1464"
     inkscape:window-y="4"
     inkscape:window-maximized="0"
     inkscape:current-layer="layer1" /><defs
     id="defs1"><filter
       inkscape:label="Ridged Border"
       inkscape:menu="Bevels"
       inkscape:menu-tooltip="Ridged border with inner bevel"
       style="color-interpolation-filters:sRGB;"
       id="filter2"
       x="0"
       y="0"
       width="1"
       height="1"><feMorphology
         radius="4.3"
         in="SourceAlpha"
         result="result91"
         id="feMorphology1" /><feComposite
         operator="out"
         in="SourceGraphic"
         in2="result91"
         id="feComposite1" /><feGaussianBlur
         result="result0"
         stdDeviation="1"
         id="feGaussianBlur1" /><feDiffuseLighting
         diffuseConstant="1"
         id="feDiffuseLighting1"><feDistantLight
           elevation="50"
           azimuth="225"
           id="feDistantLight1" /></feDiffuseLighting><feBlend
         mode="multiply"
         in2="SourceGraphic"
         id="feBlend1" /><feGaussianBlur
         result="result10"
         stdDeviation="0.5"
         id="feGaussianBlur2" /><feComposite
         operator="in"
         in="result10"
         in2="SourceAlpha"
         id="feComposite2" /></filter></defs><g
     inkscape:label="Camada 1"
     inkscape:groupmode="layer"
     id="layer1"><path
       id="path1"
       style="fill:#b3e9e7;fill-opacity:1;filter:url(#filter2)"
       d="m 137.70322,45.146598 c -1.54621,-0.01658 -3.12507,0.05675 -4.7134,0.223759 -2.43328,0.25584 -6.39464,1.013963 -9.1209,1.745113 -1.43609,0.385144 -17.49281,5.616254 -31.557759,10.231417 h 1.784904 V 90.195528 H 126.25638 V 57.346887 h 21.78058 v 67.349373 c 4.66733,-14.13365 12.72298,-38.954181 13.20126,-40.799055 4.57104,-17.63182 0.51725,-30.829761 -11.13369,-36.248951 -3.41862,-1.590105 -7.76268,-2.451915 -12.40131,-2.501656 z M 72.315999,64.043636 C 60.80472,68.565914 52.134684,75.661906 47.928341,84.06877 c -2.14691,4.29084 -2.906498,7.546201 -2.899048,12.423531 0.006,3.701689 0.189377,4.916059 1.292427,8.540049 1.31013,4.30435 3.805422,8.83322 7.189742,13.04985 1.037419,1.29255 10.008247,10.39065 18.804537,19.18901 z m 21.780066,43.510524 v 39.53867 H 82.1986 c 3.731684,3.67707 6.63867,6.49945 7.380428,7.11223 5.66698,4.68157 11.029372,7.37766 17.318322,8.70644 2.15756,0.45587 7.92475,0.38694 10.27534,-0.12247 8.36714,-1.81328 15.48781,-7.09121 21.2261,-15.6962 h -12.14241 v -39.53867 z"
       transform="matrix(0.29104027,0,0,0.28090416,31.923916,32.463086)" /></g></svg>
