<?xml version="1.0" encoding="UTF-8" standalone="no"?>
<!-- Created with Inkscape (http://www.inkscape.org/) -->

<svg
   width="210mm"
   height="297mm"
   viewBox="0 0 210 297"
   version="1.1"
   id="svg1"
   xml:space="preserve"
   inkscape:version="1.4 (86a8ad7, 2024-10-11)"
   sodipodi:docname="logo.svg"
   xmlns:inkscape="http://www.inkscape.org/namespaces/inkscape"
   xmlns:sodipodi="http://sodipodi.sourceforge.net/DTD/sodipodi-0.dtd"
   xmlns="http://www.w3.org/2000/svg"
   xmlns:svg="http://www.w3.org/2000/svg"><sodipodi:namedview
     id="namedview1"
     pagecolor="#ffffff"
     bordercolor="#000000"
     borderopacity="0.25"
     inkscape:showpageshadow="2"
     inkscape:pageopacity="0.0"
     inkscape:pagecheckerboard="0"
     inkscape:deskcolor="#d1d1d1"
     inkscape:document-units="mm"
     inkscape:zoom="0.49264169"
     inkscape:cx="396.84014"
     inkscape:cy="561.25984"
     inkscape:window-width="1360"
     inkscape:window-height="697"
     inkscape:window-x="1358"
     inkscape:window-y="-8"
     inkscape:window-maximized="1"
     inkscape:current-layer="layer1" /><defs
     id="defs1"><rect
       x="155.01638"
       y="372.46991"
       width="155.73405"
       height="50.954458"
       id="rect9" /><rect
       x="76.120232"
       y="186.7483"
       width="157.31514"
       height="218.21133"
       id="rect3" /><rect
       x="233.43538"
       y="740.90359"
       width="45.164669"
       height="38.060108"
       id="rect1" /><filter
       inkscape:label="Ridged Border"
       inkscape:menu="Bevels"
       inkscape:menu-tooltip="Ridged border with inner bevel"
       style="color-interpolation-filters:sRGB;"
       id="filter8"
       x="0"
       y="0"
       width="1"
       height="1"><feMorphology
         radius="4.3"
         in="SourceAlpha"
         result="result91"
         id="feMorphology7" /><feComposite
         operator="out"
         in="SourceGraphic"
         in2="result91"
         id="feComposite7" /><feGaussianBlur
         result="result0"
         stdDeviation="1"
         id="feGaussianBlur7" /><feDiffuseLighting
         diffuseConstant="1"
         id="feDiffuseLighting7"><feDistantLight
           elevation="50"
           azimuth="225"
           id="feDistantLight7" /></feDiffuseLighting><feBlend
         mode="multiply"
         in2="SourceGraphic"
         id="feBlend7" /><feGaussianBlur
         result="result10"
         stdDeviation="0.5"
         id="feGaussianBlur8" /><feComposite
         operator="in"
         in="result10"
         in2="SourceAlpha"
         id="feComposite8" /></filter></defs><g
     inkscape:label="Camada 1"
     inkscape:groupmode="layer"
     id="layer1"><g
       inkscape:label="Camada 1"
       id="layer1-8"
       transform="translate(9.6681426,58.332568)"
       style="opacity:1;fill:#b3e9e7;fill-opacity:1.0"><path
         id="path1"
         style="fill:#b3e9e7;filter:url(#filter8);fill-opacity:1.0"
         d="m 110.47751,45.003296 c -1.54621,-0.01658 -3.12508,0.05727 -4.71341,0.224275 -2.43328,0.25585 -6.39464,1.013447 -9.12089,1.744597 -1.75496,0.470657 -25.47759,8.215286 -38.90771,12.658142 1.937804,-0.04876 4.058607,-0.08062 6.530868,-0.08062 12.213438,0 20.124406,0.185166 23.732916,0.555521 9.398016,0.987615 16.753756,3.456325 22.067396,7.406783 4.99641,3.703555 8.94226,8.888725 11.837,15.555123 2.77578,6.296043 4.16357,12.777379 4.16357,19.443773 0,2.63288 -0.18869,5.18481 -0.54363,7.66568 4.05076,-12.418404 8.15161,-25.12119 8.48888,-26.422156 4.57103,-17.63182 0.51726,-30.82976 -11.13368,-36.24895 -3.41862,-1.590098 -7.76268,-2.452429 -12.40131,-2.502173 z M 48.696259,62.614624 c -0.204678,0.07055 -1.45083,0.475712 -1.583366,0.522965 -12.52033,4.463865 -21.960961,11.894399 -26.410791,20.787879 -2.14691,4.290853 -2.906498,7.546203 -2.899048,12.423533 0.006,3.701689 0.189895,4.916049 1.292945,8.540049 1.31013,4.30435 3.804905,8.83372 7.189225,13.05036 1.190902,1.48378 12.648954,13.05377 22.454443,22.81618 0.05811,-4.26262 0.177951,-9.40331 0.418579,-16.27033 0.356886,-9.09428 0.535368,-15.90474 0.535368,-20.43131 0,-4.732319 -0.178482,-11.810349 -0.535368,-21.233841 -0.298753,-8.913306 -0.444584,-15.52572 -0.461987,-20.205485 z m 32.522045,16.008325 c -6.106717,0 -9.159647,0.84342 -9.159647,2.530595 0,2.427886 -0.04006,6.090517 -0.119372,10.987447 -0.07931,4.85577 -0.118856,8.497539 -0.118856,10.925429 0,2.38673 0.03955,5.9873 0.118856,10.80192 0.07931,4.77347 0.119372,8.37404 0.119372,10.80193 0,1.76947 3.172094,2.6541 9.516727,2.6541 6.86015,0 12.253116,-2.36596 16.178866,-7.09828 3.68783,-4.48541 5.53196,-10.39039 5.53196,-17.71519 0,-6.954459 -2.00284,-12.633575 -6.0079,-17.03669 -4.044716,-4.567717 -9.398126,-6.851261 -16.060006,-6.851261 z m -40.058536,5.547465 c 0.07832,0 0.117306,0.03681 0.117306,0.110071 v 1.34152 c 0,0.07327 -0.04438,0.109554 -0.132809,0.109554 -0.255167,0 -0.637917,-0.0087 -1.14825,-0.02636 -0.510334,-0.02021 -0.893084,-0.03049 -1.148251,-0.03049 -0.07327,0 -0.112252,0.01137 -0.117305,0.03411 0.01516,0.02779 0.405488,0.197232 1.170988,0.50798 0.4497,0.181901 0.897964,0.363802 1.345137,0.545703 0.05811,0.02526 0.09221,0.05667 0.10232,0.09457 0.0025,0.01263 0.0041,0.0635 0.0041,0.151929 0,0.131372 -0.02544,0.209347 -0.07596,0.234611 -0.277905,0.136425 -0.682302,0.316144 -1.212846,0.538468 -0.560862,0.237482 -0.96635,0.415593 -1.216464,0.534334 -0.01263,0.0051 -0.02618,0.01642 -0.04134,0.03411 0.02274,0.01769 0.05903,0.02635 0.109554,0.02635 0.247588,0 0.618969,-0.0065 1.114144,-0.01912 0.495175,-0.01263 0.866557,-0.0186 1.114144,-0.0186 0.08842,0 0.132809,0.0352 0.132809,0.105937 v 1.265555 c 0,0.05053 -0.0076,0.08245 -0.02274,0.09508 -0.01769,0.01011 -0.04691,0.01499 -0.08733,0.01499 -0.275378,0 -0.688445,-0.01246 -1.239201,-0.03772 -0.553282,-0.02779 -0.96744,-0.04186 -1.242818,-0.04186 -0.293063,0 -0.842556,0.01246 -1.648478,0.03772 -0.209692,0.0025 -0.521531,0.0139 -0.935861,0.03411 l -0.06459,0.0041 c -0.05053,0.0025 -0.07597,-0.05053 -0.07597,-0.159164 0,-0.138952 -0.0038,-0.34738 -0.01137,-0.625284 -0.01011,-0.277905 -0.01499,-0.486333 -0.01499,-0.625285 0,-0.02779 0.05306,-0.06729 0.159164,-0.117822 l 2.429309,-1.106393 c 0.164216,-0.07832 0.24598,-0.143833 0.24598,-0.196887 0,-0.02779 -0.09474,-0.08733 -0.284221,-0.178284 -0.530544,-0.255166 -1.330151,-0.633036 -2.39882,-1.133264 -0.09853,-0.04295 -0.147794,-0.08952 -0.147794,-0.140043 0,-0.07327 0.0038,-0.183164 0.01137,-0.329696 0.0076,-0.149057 0.01137,-0.261655 0.01137,-0.337447 0,-0.06316 -0.006,-0.158991 -0.0186,-0.287838 -0.01263,-0.131373 -0.01912,-0.228811 -0.01912,-0.291971 0,-0.07579 0.03032,-0.113689 0.09095,-0.113689 0.298116,0 0.744198,0.01137 1.337903,0.03411 0.591178,0.02021 1.035653,0.03049 1.333769,0.03049 0.275378,0 0.688445,-0.01137 1.239201,-0.03411 0.550755,-0.02274 0.962732,-0.03411 1.235583,-0.03411 z m 0.02274,6.232697 c 0.04547,0 0.07688,0.03141 0.09457,0.09457 0.02021,0.07579 0.03049,0.31074 0.03049,0.70486 0,0.36128 -0.01028,0.59405 -0.03049,0.69763 -0.01769,0.0859 -0.07453,0.14005 -0.170533,0.16278 -0.363802,0.0859 -0.558163,0.15302 -0.583427,0.20103 -0.01768,0.04042 -0.02687,0.37878 -0.02687,1.01544 0,0.42949 0.01137,0.65795 0.03411,0.68574 0.04042,0.04295 0.175757,0.09113 0.40566,0.14418 0.209692,0.048 0.32338,0.10594 0.341065,0.17415 0.02021,0.0859 0.03049,0.37391 0.03049,0.86403 0,0.38654 -0.03681,0.57981 -0.110071,0.57981 -0.06569,0 -0.872873,-0.28531 -2.421558,-0.85628 -1.675005,-0.61897 -2.595879,-0.95515 -2.762622,-1.00821 -0.096,-0.03031 -0.144177,-0.06551 -0.144177,-0.10593 0,-0.06821 0.0065,-0.17323 0.01912,-0.31471 0.01263,-0.14401 0.01912,-0.25121 0.01912,-0.32195 0,-0.06821 -0.0038,-0.16783 -0.01137,-0.2992 -0.01011,-0.1339 -0.0155,-0.23404 -0.0155,-0.29973 0,-0.048 0.04169,-0.09186 0.125057,-0.13229 0.265272,-0.12379 1.174778,-0.48541 2.728515,-1.08417 1.563844,-0.60128 2.380217,-0.90175 2.44843,-0.90175 z m -2.065507,2.26239 c -0.08337,0 -0.313447,0.05794 -0.689881,0.17415 -0.363802,0.11369 -0.596059,0.19706 -0.697115,0.25012 0.111162,0.05305 0.352606,0.14291 0.723987,0.26923 0.394119,0.13643 0.625285,0.20464 0.693498,0.20464 0.04547,0 0.07039,-0.07579 0.07545,-0.22738 0.0051,-0.07832 0.0078,-0.20716 0.0078,-0.38654 0,-0.16674 -0.02004,-0.25878 -0.06046,-0.27647 -0.01263,-0.005 -0.03049,-0.0077 -0.05323,-0.0077 z m 0.981335,3.43597 c 0.108635,0 0.308394,0.02164 0.59893,0.06459 0.3158,0.04548 0.50419,0.08556 0.564823,0.12093 0.048,0.03031 0.07183,0.072 0.07183,0.12505 0,0.02274 -0.0038,0.06064 -0.01137,0.11369 -0.02526,0.18443 -0.03772,0.72255 -0.03772,1.61437 0,0.19454 -0.0016,0.48415 -0.0041,0.86817 -0.0025,0.38401 -0.0036,0.67202 -0.0036,0.86403 0,0.08337 -0.03681,0.12505 -0.110071,0.12505 -0.282957,0 -0.707393,-0.01515 -1.273308,-0.04547 -0.56844,-0.03284 -0.993967,-0.04961 -1.276924,-0.04961 -0.28801,0 -0.825043,0.01516 -1.610755,0.04547 -0.202112,0.0076 -0.503673,0.02165 -0.905371,0.04186 l -0.05323,0.0036 c -0.05811,0.005 -0.08733,-0.02636 -0.08733,-0.09457 0,-0.18695 0.0054,-0.46738 0.0155,-0.84129 0.01011,-0.37643 0.01499,-0.65796 0.01499,-0.84491 0,-0.18443 -0.0049,-0.46268 -0.01499,-0.83406 -0.01011,-0.37138 -0.0155,-0.64911 -0.0155,-0.83354 0,-0.13137 0.04927,-0.20716 0.147795,-0.22737 0.05811,-0.01264 0.235128,-0.03158 0.530717,-0.05685 0.293063,-0.02779 0.471174,-0.04186 0.534334,-0.04186 0.05306,0 0.07958,0.02544 0.07958,0.07597 0,0.01516 -0.0011,0.04168 -0.0036,0.07958 -0.05558,0.67202 -0.08372,1.27566 -0.08372,1.81126 0,0.1339 0.03192,0.21618 0.09508,0.24649 0.03032,0.01264 0.127239,0.01913 0.291456,0.01913 0.171795,0 0.285483,-0.02544 0.341064,-0.07597 0.048,-0.04295 0.07235,-0.12523 0.07235,-0.2465 0,-0.02526 -0.0016,-0.07452 -0.0041,-0.14779 -0.0051,-0.07327 -0.0072,-0.1339 -0.0072,-0.1819 0,-0.31833 -0.0092,-0.64044 -0.02687,-0.96635 l -0.0186,-0.20826 c -0.01011,-0.08589 -0.0155,-0.15411 -0.0155,-0.20464 0,-0.06063 0.02923,-0.09095 0.08733,-0.09095 -0.05305,0 0.140216,0.02274 0.57981,0.06822 0.202112,0.02021 0.404052,0.03049 0.606164,0.03049 0.05053,0 0.07597,0.03628 0.07597,0.10955 l -0.03772,0.34106 c -0.01516,0.14401 -0.02274,0.47261 -0.02274,0.98547 v 0.40153 c 0,0.10358 0.02492,0.16422 0.07545,0.1819 0.01263,0.0025 0.09112,0.0041 0.235128,0.0041 0.192006,0 0.315972,-0.01298 0.371553,-0.03825 0.096,-0.04294 0.152848,-0.20429 0.170532,-0.48472 v -0.55345 c 0,-0.1339 -0.01137,-0.33205 -0.03411,-0.5948 -0.02526,-0.26527 -0.03824,-0.46394 -0.03824,-0.59531 0,-0.05558 0.04548,-0.0832 0.136426,-0.0832 z m 1.141016,4.504629 c 0.01769,0 0.03014,0.0249 0.03772,0.0755 0.01516,0.096 0.02274,0.33745 0.02274,0.72399 0,0.33096 -0.0076,0.55563 -0.02274,0.67437 -0.0076,0.0556 -0.01407,0.0875 -0.01912,0.0951 -0.0076,0.0152 -0.0325,0.0325 -0.07545,0.0527 -0.09853,0.0379 -0.245234,0.0936 -0.439767,0.16691 -0.25264,0.0985 -0.625112,0.25282 -1.117761,0.46251 -0.09853,0.0455 -0.153192,0.14997 -0.163298,0.31419 0.0051,-0.0758 0.0078,0.0547 0.0078,0.39067 0,0.0379 0.06442,0.0569 0.19327,0.0569 0.171795,0 0.428397,-0.0152 0.769462,-0.0455 0.341064,-0.0328 0.59715,-0.0496 0.768945,-0.0496 0.04295,0 0.06838,0.0114 0.07596,0.0341 l 0.0078,0.10645 c 0.01011,0.14906 0.01499,0.38132 0.01499,0.69712 0,0.36127 -0.0076,0.57837 -0.02274,0.65164 -0.01516,0.0733 -0.05415,0.11007 -0.117306,0.11007 -0.277904,0 -0.69746,-0.0125 -1.258321,-0.0377 -0.560862,-0.0278 -0.981508,-0.0419 -1.261939,-0.0419 -1.068668,0 -1.902381,0.0238 -2.501139,0.0718 l -0.05323,0.004 c -0.04295,0.003 -0.07166,-0.037 -0.08682,-0.11782 -0.01516,-0.0834 -0.03032,-0.46991 -0.04547,-1.15962 -0.01011,-0.46738 -0.0155,-0.83986 -0.0155,-1.11776 0,-0.57602 0.130454,-1.04593 0.390674,-1.40973 0.293062,-0.41181 0.715891,-0.61754 1.269173,-0.61754 0.368855,0 0.663353,0.0531 0.88315,0.15917 0.219797,0.10611 0.433106,0.30156 0.640271,0.58704 0.04042,0.0581 0.07832,0.0873 0.113688,0.0873 -0.0025,0 0.31471,-0.15428 0.951363,-0.4625 0.636654,-0.30822 0.987996,-0.46199 1.053683,-0.46199 z m -3.399276,1.59164 c -0.308221,0 -0.522047,0.10071 -0.640788,0.30282 -0.09095,0.15664 -0.136426,0.40187 -0.136426,0.73536 0,0.24 0.03681,0.36776 0.110071,0.38292 0.0859,0.0152 0.333313,0.0227 0.742591,0.0227 0.05811,0 0.144177,-0.002 0.257865,-0.004 0.113688,-0.003 0.19815,-0.004 0.253731,-0.004 0.01263,0 0.02561,-0.0406 0.03824,-0.12144 0.02274,-0.15411 0.03411,-0.31545 0.03411,-0.48472 0,-0.55328 -0.219797,-0.82992 -0.659391,-0.82992 z m 0.750342,3.70881 c 0.742762,0 1.386995,0.23875 1.932698,0.71624 0.487596,0.42191 0.743682,1.01418 0.768946,1.77715 0.0051,0.14653 0.0078,0.54932 0.0078,1.20871 0,0.1238 -0.0038,0.3111 -0.01137,0.56121 -0.0076,0.24759 -0.01137,0.43328 -0.01137,0.55707 0,0.0733 -0.02923,0.10956 -0.08733,0.10956 -0.277904,0 -0.694761,-0.01 -1.250569,-0.03 -0.558335,-0.0227 -0.976283,-0.0341 -1.254187,-0.0341 -0.290537,0 -0.72525,0.0114 -1.303797,0.0341 -0.581072,0.0202 -1.015269,0.03 -1.303279,0.03 -0.05306,0 -0.08498,-0.0363 -0.09508,-0.10956 -0.02021,-0.17937 -0.02997,-0.47387 -0.02997,-0.88315 0,-0.77813 0.01137,-1.28215 0.03411,-1.51205 0.06063,-0.59876 0.212218,-1.06758 0.454753,-1.40612 0.227376,-0.31832 0.545703,-0.56953 0.95498,-0.75396 0.38654,-0.17684 0.784449,-0.2651 1.193726,-0.2651 z m 0,1.45108 c -0.426962,0 -0.775606,0.12775 -1.045931,0.38292 -0.280431,0.25769 -0.420646,0.59876 -0.420646,1.02319 0,0.38907 0.05145,0.58343 0.155029,0.58343 0.149058,0 0.374252,0.003 0.674894,0.008 0.298116,0.005 0.521703,0.008 0.67076,0.008 0.146532,0 0.36742,-0.003 0.663009,-0.008 0.293063,-0.005 0.513951,-0.008 0.663009,-0.008 0.108635,0 0.163297,-0.20194 0.163297,-0.60616 0,-0.43707 -0.145613,-0.78083 -0.436149,-1.03095 -0.275378,-0.23495 -0.637572,-0.35243 -1.087272,-0.35243 z m 81.767102,18.5508 c -1.53673,2.82584 -3.37371,5.52305 -5.53196,8.08271 -6.62222,7.94207 -15.92149,12.11848 -27.897004,12.52999 -2.29994,0.0823 -8.62434,0.12351 -18.974039,0.12351 -1.943047,0 -4.877849,-0.0616 -8.803597,-0.18501 -1.829849,-0.0581 -3.404287,-0.1 -4.803324,-0.13074 4.009958,3.95641 7.227357,7.09037 8.005712,7.73338 5.66698,4.68157 11.028854,7.37715 17.317808,8.70593 2.15756,0.45586 7.92526,0.38745 10.27586,-0.12196 9.151964,-1.98336 16.817904,-8.09884 22.808424,-18.19475 1.77909,-2.99834 3.72814,-7.18887 4.97386,-10.69496 0.38639,-1.0875 1.48866,-4.4078 2.62826,-7.8481 z"
         transform="matrix(0.60439133,0,0,0.61379659,49.203047,26.241211)" /><text
         xml:space="preserve"
         transform="scale(0.26458333)"
         id="text9"
         style="font-style:normal;font-variant:normal;font-weight:bold;font-stretch:normal;font-size:29.3333px;line-height:0.9;font-family:'Berlin Sans FB Demi';-inkscape-font-specification:'Berlin Sans FB Demi, Bold';font-variant-ligatures:normal;font-variant-caps:normal;font-variant-numeric:normal;font-variant-east-asian:normal;text-align:start;letter-spacing:0.74px;writing-mode:lr-tb;direction:ltr;white-space:pre;shape-inside:url(#rect9);display:inline;fill:#b3e9e7;fill-opacity:1" /></g></g></svg>
