<?xml version="1.0" encoding="UTF-8" standalone="no"?>
<!-- Created with Inkscape (http://www.inkscape.org/) -->

<svg
   width="210mm"
   height="297mm"
   viewBox="0 0 210 297"
   version="1.1"
   id="svg1"
   xml:space="preserve"
   inkscape:version="1.4 (86a8ad7, 2024-10-11)"
   sodipodi:docname="çogo_teste.svg"
   xmlns:inkscape="http://www.inkscape.org/namespaces/inkscape"
   xmlns:sodipodi="http://sodipodi.sourceforge.net/DTD/sodipodi-0.dtd"
   xmlns="http://www.w3.org/2000/svg"
   xmlns:svg="http://www.w3.org/2000/svg"><sodipodi:namedview
     id="namedview1"
     pagecolor="#ffffff"
     bordercolor="#000000"
     borderopacity="0.25"
     inkscape:showpageshadow="2"
     inkscape:pageopacity="0.0"
     inkscape:pagecheckerboard="0"
     inkscape:deskcolor="#d1d1d1"
     inkscape:document-units="mm"
     inkscape:zoom="1.9705668"
     inkscape:cx="404.7059"
     inkscape:cy="237.74886"
     inkscape:window-width="1360"
     inkscape:window-height="697"
     inkscape:window-x="1358"
     inkscape:window-y="-8"
     inkscape:window-maximized="1"
     inkscape:current-layer="layer1-8" /><defs
     id="defs1"><rect
       x="155.01638"
       y="372.46991"
       width="155.73405"
       height="50.954458"
       id="rect9" /><rect
       x="76.120232"
       y="186.7483"
       width="157.31514"
       height="218.21133"
       id="rect3" /><rect
       x="233.43538"
       y="740.90359"
       width="45.164669"
       height="38.060108"
       id="rect1" /><filter
       inkscape:label="Ridged Border"
       inkscape:menu="Bevels"
       inkscape:menu-tooltip="Ridged border with inner bevel"
       style="color-interpolation-filters:sRGB;"
       id="filter8"
       x="0"
       y="0"
       width="1"
       height="1"><feMorphology
         radius="4.3"
         in="SourceAlpha"
         result="result91"
         id="feMorphology7" /><feComposite
         operator="out"
         in="SourceGraphic"
         in2="result91"
         id="feComposite7" /><feGaussianBlur
         result="result0"
         stdDeviation="1"
         id="feGaussianBlur7" /><feDiffuseLighting
         diffuseConstant="1"
         id="feDiffuseLighting7"><feDistantLight
           elevation="50"
           azimuth="225"
           id="feDistantLight7" /></feDiffuseLighting><feBlend
         mode="multiply"
         in2="SourceGraphic"
         id="feBlend7" /><feGaussianBlur
         result="result10"
         stdDeviation="0.5"
         id="feGaussianBlur8" /><feComposite
         operator="in"
         in="result10"
         in2="SourceAlpha"
         id="feComposite8" /></filter><filter
       inkscape:label="Ridged Border"
       inkscape:menu="Bevels"
       inkscape:menu-tooltip="Ridged border with inner bevel"
       style="color-interpolation-filters:sRGB;"
       id="filter14"
       x="0"
       y="0"
       width="1"
       height="1"><feMorphology
         radius="4.3"
         in="SourceAlpha"
         result="result91"
         id="feMorphology13" /><feComposite
         operator="out"
         in="SourceGraphic"
         in2="result91"
         id="feComposite13" /><feGaussianBlur
         result="result0"
         stdDeviation="1"
         id="feGaussianBlur13" /><feDiffuseLighting
         diffuseConstant="1"
         id="feDiffuseLighting13"><feDistantLight
           elevation="50"
           azimuth="225"
           id="feDistantLight13" /></feDiffuseLighting><feBlend
         mode="multiply"
         in2="SourceGraphic"
         id="feBlend13" /><feGaussianBlur
         result="result10"
         stdDeviation="0.5"
         id="feGaussianBlur14" /><feComposite
         operator="in"
         in="result10"
         in2="SourceAlpha"
         id="feComposite14" /></filter></defs><g
     inkscape:label="Camada 1"
     inkscape:groupmode="layer"
     id="layer1"><g
       inkscape:label="Camada 1"
       id="layer1-8"
       transform="translate(9.6681426,58.332568)"
       style="fill:#b3e9e7;fill-opacity:1"><text
         xml:space="preserve"
         transform="scale(0.26458333)"
         id="text9"
         style="font-style:normal;font-variant:normal;font-weight:bold;font-stretch:normal;font-size:29.3333px;line-height:0.9;font-family:'Berlin Sans FB Demi';-inkscape-font-specification:'Berlin Sans FB Demi, Bold';font-variant-ligatures:normal;font-variant-caps:normal;font-variant-numeric:normal;font-variant-east-asian:normal;text-align:start;letter-spacing:0.74px;writing-mode:lr-tb;direction:ltr;white-space:pre;shape-inside:url(#rect9);display:inline;fill:#b3e9e7;fill-opacity:1" /><path
         id="path2"
         style="fill:#b3e9e7;fill-opacity:1;filter:url(#filter14)"
         d="m 120.17716,-29.092918 c -2.10046,0.04387 -4.38263,0.371669 -6.81819,0.992704 -0.87026,0.221906 -10.87505,3.410591 -18.705834,5.936072 h 8.035164 c 6.25224,0 11.24279,0.97971 14.9717,2.938839 3.75695,1.959129 6.58858,4.872925 8.49509,8.741585 1.93455,3.8686602 2.90215,8.1587032 2.90215,12.8705325 0,1.6660216 -0.10721,3.2664067 -0.30334,4.8121094 2.36025,-7.09566238 4.74111,-14.3040474 4.92838,-14.9908162 0.40399,-1.481587 0.82291,-3.6344307 0.96428,-4.9568037 0.3691,-3.452733 -0.0874,-6.823581 -1.25884,-9.300724 -2.24573,-4.748797 -6.90918,-7.175105 -13.21056,-7.043498 z m -30.399695,8.509041 c -1.712851,0.558832 -3.486042,1.13678 -4.046781,1.332735 -1.937245,0.676989 -4.252502,1.736341 -5.9092,2.703195 -5.57837,3.255557 -8.957253,7.421456 -10.053134,12.395109 -0.281467,1.277437 -0.319579,4.41214303 -0.0677,5.5846721 0.734201,3.417741 2.223812,6.33158 4.810559,9.4113119 0.889903,1.059501 9.627714,9.688144 15.266252,15.149462 z m 9.504325,5.152657 v 37.310384 h 3.95325 c 5.52327,0 9.53241,-1.686444 12.02769,-5.059122 2.49529,-3.397477 3.74293,-7.9232705 3.74293,-13.5774657 0,-12.4491492 -5.25677,-18.6737963 -15.77062,-18.6737963 z m 25.69353,33.886821 c -1.62757,2.610373 -3.77103,4.805859 -6.43217,6.585128 -3.53265,2.380713 -8.57952,3.571358 -15.14016,3.571358 H 92.495645 c 0.968082,0.921434 1.746505,1.652418 1.974557,1.832446 2.32985,1.839216 4.832608,3.194743 7.210928,3.906738 2.00239,0.599454 2.67326,0.6997 4.71858,0.7028 2.69491,0.004 4.49384,-0.408872 6.86469,-1.575615 4.91399,-2.418267 9.01966,-7.548932 11.48612,-14.353129 0.0203,-0.05606 0.19662,-0.589747 0.2248,-0.669726 z" /><text
         xml:space="preserve"
         style="font-style:normal;font-variant:normal;font-weight:bold;font-stretch:normal;font-size:5.59239px;line-height:1.3;font-family:Sans;-inkscape-font-specification:'Sans Bold';text-align:start;letter-spacing:0.077595px;writing-mode:lr-tb;direction:ltr;text-anchor:start;fill:#000000;fill-opacity:1;stroke-width:0.104857"
         x="-7.6488605"
         y="89.429718"
         id="text14"
         transform="matrix(-5.6080382e-4,-1.0517027,0.95083871,-6.2029349e-4,0,0)"><tspan
           sodipodi:role="line"
           id="tspan14"
           style="font-style:normal;font-variant:normal;font-weight:bold;font-stretch:normal;font-family:Sans;-inkscape-font-specification:'Sans Bold';fill:#000000;fill-opacity:1;stroke-width:0.104857"
           x="-7.6488605"
           y="89.429718">FULL</tspan><tspan
           sodipodi:role="line"
           style="font-style:normal;font-variant:normal;font-weight:bold;font-stretch:normal;font-family:Sans;-inkscape-font-specification:'Sans Bold';fill:#000000;fill-opacity:1;stroke-width:0.104857"
           x="-7.6488605"
           y="96.699821"
           id="tspan15" /></text></g></g></svg>
